/* XPM */
static char * httprequester_xpm[] = {
"32 32 3 1",
" 	c None",
".	c #00A900",
"+	c #F20000",
"                                ",
"          ...                   ",
"       ......                   ",
"     ........                   ",
"   .......................      ",
"  ..........................    ",
"  ..........................    ",
"   .......................      ",
"     ........                   ",
"       ......                   ",
"         ....                   ",
"                                ",
"                                ",
"                                ",
"                                ",
"                                ",
"                                ",
"                                ",
"                                ",
"                                ",
"                 +              ",
"                +++             ",
"                 +++++          ",
"                 +++++++        ",
"   +++++++++++++++++++++++      ",
"  +++++++++++++++++++++++++     ",
"   +++++++++++++++++++++++      ",
"                 +++++++        ",
"                 +++++          ",
"                ++++            ",
"                 +              ",
"                                "};
